# AST/ASF file generated using VICON BodyLanguage
# -----------------------------------------------
:version 1.10
:name VICON
:units
  mass 1.0
  length 0.45
  angle deg
:documentation
   .ast/.asf automatically generated from VICON data using
   VICON BodyBuilder and BodyLanguage model FoxedUp or BRILLIANT.MOD
:root
   order TX TY TZ RX RY RZ
   axis XYZ
   position 0 0 0  
   orientation 0 0 0 
:bonedata
  begin
     id 1 
     name lhipjoint
     direction 0.662698 -0.695252 0.27831 
     length 2.53073 
     axis 0 0 0  XYZ
  end
  begin
     id 2 
     name lfemur
     direction 0.34202 -0.939693 0  
     length 7.16147  
     axis 0 0 20  XYZ
    dof rx ry rz
    limits (-160.0 20.0)
           (-70.0 70.0)
           (-60.0 70.0)
  end
  begin
     id 3 
     name ltibia
     direction 0.34202 -0.939693 0   
     length 7.63967   
     axis 0 0 20   XYZ
    dof rx
    limits (-10.0 170.0)
  end
  begin
     id 4 
     name lfoot
     direction 0.0938457 -0.257721 0.961651   
     length 1.89793   
     axis -90 7.62852e-016 20   XYZ
    dof rx rz
    limits (-45.0 90.0)
           (-70.0 20.0)
  end
  begin
     id 5 
     name ltoes
     direction -0.00116841 -0.0030592 0.999995   
     length 0.955649   
     axis -90 7.62852e-016 20   XYZ
    dof rx
    limits (-90.0 20.0)
  end
  begin
     id 6 
     name rhipjoint
     direction -0.649445 -0.705948 0.282592   
     length 2.49238  
     axis 0 0 0  XYZ 
  end
  begin
     id 7 
     name rfemur
     direction -0.34202 -0.939693 0   
     length 6.90728   
     axis 0 0 -20   XYZ
    dof rx ry rz
    limits (-160.0 20.0)
           (-70.0 70.0)
           (-70.0 60.0)
  end
  begin
     id 8 
     name rtibia
     direction -0.34202 -0.939693 0   
     length 7.72868   
     axis 0 0 -20   XYZ
    dof rx
    limits (-10.0 170.0)
 end
 begin
     id 9 
     name rfoot
     direction -0.0920068 -0.252865 0.963117   
     length 1.97476  
     axis -90 -7.62852e-016 -20   XYZ
    dof rx rz
    limits (-45.0 90.0)
           (-20.0 70.0)
  end
  begin
     id 10 
     name rtoes
     direction 0.000391322 0.00230649 0.999997   
     length 0.992641   
     axis -90 -7.62852e-016 -20   XYZ
    dof rx
    limits (-90.0 20.0)
  end
  begin
     id 11 
     name lowerback
     direction -0.00875327 0.998321 -0.0572635   
     length 2.20024   
     axis 0 0 0   XYZ
    dof rx ry rz
    limits (-20.0 45.0)
           (-30.0 30.0)
           (-30.0 30.0)
  end
  begin
     id 12 
     name upperback
     direction 0.00753931 0.999972 -0.000360425   
     length 2.20538   
     axis 0 0 0   XYZ
    dof rx ry rz
    limits (-20.0 45.0)
           (-30.0 30.0)
           (-30.0 30.0)
  end
  begin
     id 13 
     name thorax
     direction 0.0117767 0.999601 0.0256663   
     length 2.21508   
     axis 0 0 0   XYZ
    dof rx ry rz
    limits (-20.0 45.0)
           (-30.0 30.0)
           (-30.0 30.0)
  end
  begin
     id 14 
     name lowerneck
     direction 0.060228 0.994909 0.0807986   
     length 1.7607   
     axis 0 0 0   XYZ
    dof rx ry rz
    limits (-20.0 45.0)
           (-30.0 30.0)
           (-30.0 30.0)
  end
  begin
     id 15 
     name upperneck
     direction -0.0563647 0.959594 -0.275685   
     length 1.75612   
     axis 0 0 0   XYZ
    dof rx ry rz
    limits (-20.0 45.0)
           (-30.0 30.0)
           (-30.0 30.0)
  end
  begin
     id 16
     name head
     direction -0.0161544 0.99458 -0.102714  
     length 1.79288  
     axis 0 0 0   XYZ
    dof rx ry rz
    limits (-20.0 45.0)
           (-30.0 30.0)
           (-30.0 30.0)
  end
  begin
     id 17 
     name lclavicle
     direction 0.93913 0.332189 -0.087669  
     length 3.52087  
     axis 0 0 0   XYZ
    dof ry rz
    limits (-20.0 10.0)
           (0.0 20.0)
  end
  begin
     id 18 
     name lhumerus
     direction 1 -4.48974e-011 -2.70836e-027   
     length 5.35289   
     axis -180 -30 -90   XYZ
    dof rx ry rz
    limits (-60.0 90.0)
           (-90.0 90.0)
           (-90.0 90.0)
  end
  begin
     id 19
     name lradius
     direction 1 -4.48961e-011 -9.76021e-027   
     length 3.27727   
     axis -180 -30 -90   XYZ
    dof rx
    limits (-10.0 170.0)
  end
  begin
     id 20
     name lwrist
     direction 1 -4.49103e-011 -2.23668e-026   
     length 1.63864   
     axis 1.44924e-014 90 90   XYZ
    dof ry
    limits (-180.0 0.0)
 end
  begin
     id 21 
     name lhand
     direction 1 3.0697e-005 0.000161777   
     length 0.54443   
     axis 2.85318e-014 90 90   XYZ
    dof rx rz
    limits (-90.0 90.0)
           (-45.0 45.0)
  end
  begin
     id 22 
     name lfingers
     direction 1 -4.49027e-011 -8.9447e-026   
     length 0.438912   
     axis 5.70628e-014 90 90   XYZ
    dof rx
    limits (0.0 90.0)
  end
  begin
     id 23
     name lthumb
     direction 0.707058 2.6516e-005 0.707156   
     length 0.630274   
     axis -90 45 -3.53137e-014   XYZ
    dof rx rz
    limits (-45.0 45.0)
           (-45.0 45.0)
  end
  begin
     id 24 
     name rclavicle
     direction -0.95274 0.284984 -0.105215   
     length 3.43401  
     axis 0 0 0   XYZ 
    dof ry rz
    limits (-10.0 20.0)
           (-20.0 0.0)
  end
  begin
     id 25 
     name rhumerus
     direction -0.999999 -0.000575019 -0.00106829  
     length 5.52077   
     axis -180 30 90   XYZ
    dof rx ry rz
    limits (-90.0 60.0)
           (-90.0 90.0)
           (-90.0 90.0)
  end
  begin
     id 26 
     name rradius
     direction -1 -4.4879e-011 -6.35415e-027   
     length 3.32364   
     axis -180 30 90   XYZ
    dof rx
    limits (-10.0 170.0)
  end
  begin
     id 27 
     name rwrist
     direction -1 -4.49048e-011 -9.98542e-027   
     length 1.66182   
     axis 6.32482e-015 -90 -90   XYZ
    dof ry
    limits (-180.0 0.0)
  end
  begin
     id 28
     name rhand
     direction -1 -4.48978e-011 -1.99771e-026   
     length 0.732235   
     axis 1.27479e-014 -90 -90   XYZ
    dof rx rz
    limits (-90.0 90.0)
           (-45.0 45.0)
  end
  begin
     id 29
     name rfingers
     direction -1 -4.49144e-011 -3.99245e-026   
     length 0.590347   
     axis 2.5496e-014 -90 -90   XYZ
    dof rx
    limits (0.0 90.0)
  end
  begin
     id 30
     name rthumb
     direction -0.707107 -6.35121e-011 0.707107   
     length 0.847624   
     axis -90 -45 -2.82974e-014   XYZ
    dof rx rz
    limits (-45.0 45.0)
           (-45.0 45.0)
  end
:hierarchy
  begin
    root lhipjoint rhipjoint lowerback
    lhipjoint lfemur
    lfemur ltibia
    ltibia lfoot
    lfoot ltoes
    rhipjoint rfemur
    rfemur rtibia
    rtibia rfoot
    rfoot rtoes
    lowerback upperback
    upperback thorax
    thorax lowerneck lclavicle rclavicle
    lowerneck upperneck
    upperneck head
    lclavicle lhumerus
    lhumerus lradius
    lradius lwrist
    lwrist lhand lthumb
    lhand lfingers
    rclavicle rhumerus
    rhumerus rradius
    rradius rwrist
    rwrist rhand rthumb
    rhand rfingers
  end

#!OML:ASF G:\Work\Work\Patient Classification 1\Elijah\terrain1\Elijah.ASF
:FULLY-SPECIFIED
:DEGREES
3993
root 9.24304 18.5601 30.5477 689.034 70.8605 -34.8266
lowerback 0.3034 1.58606 8.74801
upperback 0.838777 2.17474 3.82121
thorax 0.870189 1.17313 -0.930402
lowerneck -2.2123 16.8815 20.9055
upperneck 26.8317 31.1667 -21.206
head 17.4539 14.6561 -5.94719
rclavicle 2.21769e-014 -1.94809e-014
rhumerus -42.9185 -3.95632 -71.8443
rradius 50.5139
rwrist -14.0958
rhand -16.2152 18.9633
rfingers 7.12502
rthumb 9.99257 -10.7795
lclavicle 2.21769e-014 -1.94809e-014
lhumerus -48.8858 -0.291919 87.045
lradius 27.4068
lwrist 3.27418
lhand -20.1043 29.9599
lfingers 7.12502
lthumb 6.23911 59.848
rfemur -1.29142 -18.829 26.9486
rtibia 38.4517
rfoot -28.5195 -17.7651
rtoes -31.8017
lfemur -31.748 13.2909 -16.592
ltibia 29.5664
lfoot 15.8229 9.15205
ltoes -53.083
3994
root 9.36585 18.501 30.5541 687.789 71.1459 -36.1293
lowerback -0.167616 1.94475 9.27816
upperback 0.87291 2.5823 3.45815
thorax 1.2456 1.39235 -1.56906
lowerneck -2.56245 16.9049 20.6533
upperneck 26.5694 30.8348 -20.7774
head 17.0968 14.4806 -5.78816
rclavicle -1.20886e-014 1.75924e-014
rhumerus -43.1702 -4.96076 -72.1952
rradius 50.3533
rwrist -13.8676
rhand -15.9608 18.9094
rfingers 7.12502
rthumb 10.238 -10.8215
lclavicle -1.20886e-014 1.75924e-014
lhumerus -48.3756 -0.812943 86.6988
lradius 27.0457
lwrist 3.2354
lhand -11.9906 23.0635
lfingers 7.12502
lthumb 14.066 52.5675
rfemur -1.49567 -19.1602 26.8061
rtibia 39.868
rfoot -28.4602 -17.4399
rtoes -32.4138
lfemur -31.2893 12.6947 -16.6136
ltibia 29.3359
lfoot 14.8922 10.1268
ltoes -53.2475
3995
root 9.488 18.4218 30.5529 684.277 71.1272 -39.478
lowerback 0.057288 1.79103 9.74836
upperback 0.651776 2.43716 3.83796
thorax 0.877039 1.30918 -1.4517
lowerneck -2.03291 17.0024 20.488
upperneck 26.2378 31.0519 -20.8331
head 16.8479 14.6159 -5.76283
rclavicle 7.36124e-015 -2.10712e-014
rhumerus -43.509 -4.37777 -72.4657
rradius 50.1662
rwrist -13.6621
rhand -15.9958 19.0008
rfingers 7.12502
rthumb 10.2043 -10.7317
lclavicle 7.36124e-015 -2.10712e-014
lhumerus -48.9468 -0.192794 86.8221
lradius 27.2042
lwrist 3.37245
lhand -15.9118 25.5949
lfingers 7.12502
lthumb 10.2852 55.3234
rfemur -1.35074 -19.6971 27.2224
rtibia 41.4201
rfoot -28.1844 -17.1442
rtoes -33.4835
lfemur -30.4902 12.5476 -16.0453
ltibia 29.1137
lfoot 12.9605 10.3983
ltoes -52.9139
3996
root 9.60832 18.3363 30.5479 681.206 71.1876 -42.1741
lowerback 0.185585 1.77345 10.3126
upperback 0.743993 2.43006 3.94349
thorax 0.919275 1.31683 -1.65274
lowerneck -1.88021 17.1289 20.1866
upperneck 25.7661 31.1389 -20.8265
head 16.5263 14.6477 -5.69248
rclavicle 2.88145e-014 3.44891e-014
rhumerus -43.4967 -4.18745 -72.8658
rradius 49.8481
rwrist -13.4396
rhand -16.631 19.3214
rfingers 7.12502
rthumb 9.59136 -10.4403
lclavicle 2.88145e-014 3.44891e-014
lhumerus -48.9491 -0.564511 87.1736
lradius 27.2864
lwrist 3.33179
lhand -17.3539 27.2258
lfingers 7.12502
lthumb 8.89385 57.0184
rfemur -1.07764 -20.1504 27.2864
rtibia 43.1054
rfoot -28.0582 -16.6719
rtoes -34.1764
lfemur -29.5864 12.7022 -15.908
ltibia 28.9921
lfoot 11.1711 10.5919
ltoes -52.8312
3997
root 9.73037 18.2546 30.5428 679.383 71.5175 -43.7233
lowerback 0.422158 1.54747 9.79728
upperback 0.555366 2.19068 4.32852
thorax 0.527964 1.17827 -0.990385
lowerneck -1.25064 17.2587 19.9174
upperneck 25.4012 31.6334 -21.2649
head 16.4192 14.8913 -5.74007
rclavicle -4.43538e-014 -2.48481e-014
rhumerus -43.598 -2.74216 -73.0744
rradius 49.4777
rwrist -13.5573
rhand -16.4943 19.3392
rfingers 7.12502
rthumb 9.72329 -10.4164
lclavicle -4.43538e-014 -2.48481e-014
lhumerus -49.3267 0.761078 87.0509
lradius 27.1071
lwrist 2.3917
lhand -17.4492 27.2536
lfingers 7.12502
lthumb 8.80186 57.0501
rfemur -1.0528 -20.5469 26.8728
rtibia 44.8953
rfoot -27.9791 -16.1356
rtoes -34.7962
lfemur -28.9489 13.3818 -16.5341
ltibia 28.9348
lfoot 9.56845 10.6327
ltoes -53.1881
3998
root 9.85826 18.1771 30.5379 677.428 71.8695 -45.4726
lowerback 0.391273 1.52663 9.63371
upperback 0.480897 2.16994 4.45136
thorax 0.454594 1.1645 -0.775065
lowerneck -1.15205 17.3392 18.8779
upperneck 25.132 31.593 -20.851
head 15.9076 14.836 -5.46765
rclavicle 6.02007e-014 1.07443e-013
rhumerus -43.7178 -2.22327 -73.2998
rradius 49.1852
rwrist -13.6075
rhand -15.2325 19.1813
rfingers 7.12502
rthumb 10.9405 -10.5136
lclavicle 6.02007e-014 1.07443e-013
lhumerus -49.3434 1.86303 86.55
lradius 26.8691
lwrist 1.54939
lhand -12.7036 24.6937
lfingers 7.12502
lthumb 13.3789 54.2441
rfemur -1.09802 -20.9895 26.4325
rtibia 46.7809
rfoot -27.2721 -15.7353
rtoes -36.5454
lfemur -28.3691 14.2225 -17.2066
ltibia 28.8556
lfoot 7.94719 10.7657
ltoes -53.788
3999
root 9.98185 18.0973 30.531 674.852 72.2493 -47.9037
lowerback 0.287433 1.6171 9.78571
upperback 0.446899 2.2818 4.44418
thorax 0.493126 1.22236 -0.861399
lowerneck -1.32861 17.2068 19.938
upperneck 25.2284 31.7109 -21.577
head 16.4669 14.9207 -5.83031
rclavicle 5.90142e-017 -3.77691e-015
rhumerus -43.8534 -2.51853 -73.4749
rradius 48.8499
rwrist -13.2996
rhand -14.5454 19.2724
rfingers 7.12502
rthumb 11.6032 -10.3864
lclavicle 5.90142e-017 -3.77691e-015
lhumerus -49.1289 2.10821 86.3371
lradius 26.6534
lwrist 1.07285
lhand -20.1097 28.663
lfingers 7.12502
lthumb 6.23395 58.5513
rfemur -1.27385 -21.5036 26.0974
rtibia 48.7798
rfoot -26.1462 -15.2386
rtoes -38.2519
lfemur -27.8223 14.0647 -17.5201
ltibia 28.8219
lfoot 6.57896 11.7681
ltoes -54.3267
4000
root 10.0974 18.0196 30.516 671.768 72.5144 -50.7314
lowerback 0.42722 1.72686 10.2807
upperback 0.435054 2.45078 4.33771
thorax 0.442008 1.30662 -1.24441
lowerneck -1.41786 17.3397 18.578
upperneck 24.8281 31.3681 -20.5578
head 15.6048 14.7204 -5.34536
rclavicle -3.76604e-017 -3.67876e-014
rhumerus -43.9446 -3.07453 -73.7102
rradius 48.3746
rwrist -12.9752
rhand -14.7339 19.2934
rfingers 7.12502
rthumb 11.4213 -10.3755
lclavicle -3.76604e-017 -3.67876e-014
lhumerus -48.7815 1.45147 86.4929
lradius 26.4987
lwrist 1.11119
lhand -14.9334 24.9932
lfingers 7.12502
lthumb 11.229 54.6727
rfemur -1.39334 -21.8349 25.8608
rtibia 50.8209
rfoot -24.9788 -14.4402
rtoes -39.2254
lfemur -27.0872 13.0886 -17.3853
ltibia 28.7424
lfoot 5.58603 13.3523
ltoes -54.633
4001
root 10.2092 17.9362 30.4996 669.054 72.8157 -53.0105
lowerback 0.726437 1.87296 10.8107
upperback 0.508265 2.67652 4.01269
thorax 0.412466 1.41918 -1.87623
lowerneck -1.61196 17.3444 18.7562
upperneck 24.6832 31.2656 -20.5004
head 15.5662 14.6753 -5.34744
rclavicle 1.07002e-014 -9.74045e-015
rhumerus -43.9834 -3.80491 -74.1604
rradius 47.8754
rwrist -12.9032
rhand -14.9513 19.4002
rfingers 7.12502
rthumb 11.2118 -10.2803
lclavicle 1.07002e-014 -9.74045e-015
lhumerus -48.3022 0.55796 86.5163
lradius 26.3177
lwrist 1.14179
lhand -13.4841 24.4763
lfingers 7.12502
lthumb 12.6265 54.0747
rfemur -1.42329 -22.0141 25.3486
rtibia 53.0294
rfoot -23.8395 -13.4256
rtoes -40.1195
lfemur -26.4953 14.1563 -17.751
ltibia 28.8502
lfoot 3.86901 13.0448
ltoes -54.8742
4002
root 10.315 17.8719 30.4861 666.11 73.2222 -55.6107
lowerback 1.16825 1.70231 10.4215
upperback 0.39023 2.53176 4.25411
thorax -0.0047751 1.32865 -1.43618
lowerneck -1.22507 17.3896 18.6145
upperneck 24.3028 31.5473 -20.9683
head 15.4776 14.8161 -5.46209
rclavicle -4.13721e-015 1.11816e-014
rhumerus -44.0297 -3.27669 -74.3094
rradius 47.3763
rwrist -12.8042
rhand -15.3441 19.627
rfingers 7.12502
rthumb 10.8328 -10.0737
lclavicle -4.13721e-015 1.11816e-014
lhumerus -48.2244 0.817604 86.7721
lradius 26.146
lwrist 1.27854
lhand -19.6675 27.8989
lfingers 7.12502
lthumb 6.66085 57.7742
rfemur -1.64045 -22.3305 24.8178
rtibia 55.3084
rfoot -22.9347 -12.1213
rtoes -39.6832
lfemur -25.4651 10.5846 -17.2203
ltibia 28.8556
lfoot 3.93573 16.558
ltoes -54.5922
4003
root 10.4157 17.7901 30.4749 662.708 73.656 -58.8241
lowerback 1.31736 1.65927 10.0683
upperback 0.353722 2.50588 4.49305
thorax -0.155986 1.3125 -1.00339
lowerneck -1.1914 17.3111 18.9274
upperneck 24.1319 31.7142 -21.6434
head 15.6892 14.8957 -5.71109
rclavicle -3.82816e-014 -4.76586e-014
rhumerus -43.9938 -3.19129 -74.2412
rradius 46.8326
rwrist -12.3952
rhand -16.1026 19.7165
rfingers 7.12502
rthumb 10.1011 -10.021
lclavicle -3.82816e-014 -4.76586e-014
lhumerus -47.7944 1.16872 86.8691
lradius 25.9707
lwrist 1.44321
lhand -17.0028 26.2669
lfingers 7.12502
lthumb 9.23264 56.0448
rfemur -2.23833 -22.6448 24.3685
rtibia 57.9861
rfoot -21.9624 -10.5497
rtoes -37.8688
lfemur -24.9665 11.6861 -17.5892
ltibia 28.6329
lfoot 1.9941 15.2442
ltoes -54.2367
